<svg width="251" height="70" viewBox="0 0 251 70" fill="none" xmlns="http://www.w3.org/2000/svg">
<g clip-path="url(#clip0_20_119)">
<mask id="mask0_20_119" style="mask-type:luminance" maskUnits="userSpaceOnUse" x="-3" y="-39" width="257" height="257">
<path d="M-2.51953 -38.2695H253.62V217.646H-2.51953V-38.2695Z" fill="white"/>
</mask>
<g mask="url(#mask0_20_119)">
<mask id="mask1_20_119" style="mask-type:luminance" maskUnits="userSpaceOnUse" x="14" y="3" width="37" height="44">
<path d="M14.4185 3.46813H50.3182V46.7843H14.4185V3.46813Z" fill="white"/>
</mask>
<g mask="url(#mask1_20_119)">
<g opacity="0.869995">
<path d="M27.5632 3.46866C22.6612 3.46866 18.133 5.0971 14.4185 7.83999C17.7514 5.76534 21.6181 4.55568 25.7589 4.55568C38.1898 4.55568 48.267 15.2728 48.267 28.4929C48.267 35.8335 45.153 42.3939 40.2615 46.785C46.3275 42.5332 50.3182 35.3221 50.3182 27.1406C50.3182 14.0669 40.1305 3.46866 27.5632 3.46866Z" fill="#CD936D"/>
</g>
</g>
<path d="M16.3686 33.8087C17.3244 33.8087 14.7277 33.6569 12.9844 38.1264C11.1788 42.7552 18.279 44.7275 14.7256 48.897C14.1052 49.6249 10.8142 44.6368 10.59 41.2812C10.2995 36.933 15.413 33.8087 16.3686 33.8087Z" fill="#7B4934"/>
<path d="M27.7012 10.7616C28.4712 10.9882 29.3077 10.6749 29.384 10.5072C30.5178 8.01407 32.9646 9.69748 34.0522 14.045C34.4038 15.4508 35.5092 19.5228 34.1147 19.0928C32.8519 18.7037 34.0712 20.8163 34.4641 21.7958C35.0314 23.2106 34.2767 25.0955 32.337 27.0744C31.4903 27.9382 31.956 28.7974 31.956 29.7457C31.956 32.9759 29.2522 43.4887 31.5057 50.2633C31.63 50.637 31.8852 51.3382 31.5507 51.8662C31.0231 52.6988 29.5534 52.2735 23.6825 51.5951C22.9658 51.5123 20.896 51.2769 18.5035 50.5885C17.8567 50.4024 17.1545 50.174 16.3568 49.6975C15.42 49.1379 14.6137 48.3926 14.1862 47.7999C12.1819 45.0205 14.5076 40.0454 15.413 38.1087C16.1808 36.4663 16.1994 36.9886 17.5323 34.4608C18.8109 32.0363 20.0913 29.1128 21.4139 25.1348C22.2027 22.7625 22.9818 19.814 22.6839 19.8561C20.5312 20.1614 19.884 17.8407 21.2135 14.5763C22.045 12.5346 23.3904 10.826 23.8908 9.96661C24.1809 9.46839 25.1852 9.08114 25.9547 9.3306C26.755 9.59 26.7715 10.488 27.7012 10.7616Z" fill="#7B4934"/>
<path d="M39.8749 38.3239C37.1063 37.3158 38.049 35.1811 39.6358 35.2808C40.688 35.3469 44.9129 39.112 43.8352 42.5978C43.1662 44.7616 42.0314 45.5824 40.8308 46.6667C38.1066 49.1271 36.6088 51.1567 38.4068 47.9319C38.6038 47.5786 40.5906 45.6759 41.7526 43.7604C43.231 41.3232 41.4082 38.8823 39.8749 38.3239Z" fill="#CD936D"/>
<path d="M32.6848 26.7207C34.668 27.6593 30.7266 37.5921 32.153 46.8349C32.2871 47.704 32.62 49.5477 31.5743 50.9254C30.2826 52.6269 27.1528 53.2778 25.7716 51.9963C24.1659 50.5065 25.5104 46.9501 25.6832 46.5075C26.8924 43.4117 29.5977 41.7894 29.6095 39.6308C29.6201 37.6877 28.1972 37.3275 27.9212 37.2031C26.0361 36.3538 24.9238 36.2118 24.1127 33.6471C23.2989 31.0735 24.4777 30.0994 24.6507 28.5553C24.8525 26.7535 25.3883 24.9541 26.1005 24.2141C26.817 23.4702 28.0841 25.4776 29.2493 26.4365C29.3156 26.4911 29.4566 26.622 29.6749 26.6757C30.0636 26.7713 31.2414 26.0376 32.6848 26.7207Z" fill="#EDD8C9"/>
<path d="M31.3734 26.706C32.5473 26.7408 33.1401 27.1294 33.6267 26.5694C34.7597 25.2654 35.7485 24.1249 36.1873 24.2785C37.3113 24.6719 38.0077 27.1422 38.4747 28.5183C38.6443 29.018 39.6709 31.026 39.2258 33.2369C38.716 35.7695 36.1605 36.3987 35.4021 37.2717C35.2886 37.4023 35.1334 37.6284 34.9704 37.9331C34.9704 37.9331 34.521 38.5462 34.4318 39.5483C34.2445 41.6546 39.2179 45.8483 38.5342 48.2012C38.5006 48.3168 38.4006 49.4217 37.5871 50.3332C36.6743 51.356 35.0533 51.5074 31.8489 51.7686C26.7971 52.1803 26.2552 52.2097 25.7713 51.6928C24.45 50.2811 25.7095 47.0933 25.9109 46.5835C27.1587 43.425 29.8743 41.634 29.8371 39.6308C29.8049 37.8992 28.5768 37.3274 28.3008 37.2031C26.4158 36.3538 25.1516 36.2118 24.3404 33.6471C23.5265 31.0736 24.7814 30.0993 24.9544 28.5552C25.1561 26.7534 25.54 25.2577 26.2523 24.5177C26.9686 23.7738 28.1177 25.8349 29.325 26.7401C29.9683 27.2225 29.8806 26.6618 31.3734 26.706Z" fill="#CD936D"/>
<path d="M2.43107 26.6419C2.43107 29.9922 3.0662 33.1269 4.33624 36.0455C5.60638 38.9642 7.3466 41.5271 9.55678 43.7354C11.7671 45.9437 14.3321 47.6824 17.2534 48.9513C20.1747 50.2203 23.312 50.8548 26.6653 50.8548C30.0174 50.8548 33.1547 50.2203 36.076 48.9513C38.9973 47.6824 41.5636 45.9437 43.7739 43.7354C45.984 41.5271 47.7242 38.9642 48.9944 36.0455C50.2644 33.1269 50.8995 29.9922 50.8995 26.6419C50.8995 23.2927 50.2644 20.1581 48.9944 17.2395C47.7242 14.3207 45.984 11.7566 43.7739 9.54839C41.5636 7.34005 38.9973 5.60137 36.076 4.33244C33.1547 3.06341 30.0174 2.42894 26.6653 2.42894C23.312 2.42894 20.1747 3.06341 17.2534 4.33244C14.3321 5.60137 11.7671 7.34005 9.55678 9.54839C7.3466 11.7566 5.60638 14.3207 4.33624 17.2395C3.0662 20.1581 2.43107 23.2927 2.43107 26.6419ZM0 26.6419C0 22.989 0.698032 19.5379 2.09512 16.2895C3.49108 13.0423 5.39625 10.2125 7.80826 7.80254C10.2203 5.39264 13.0526 3.48925 16.3038 2.09328C19.5539 0.698547 23.0081 3.8147e-06 26.6653 3.8147e-06C30.3213 3.8147e-06 33.7756 0.698547 37.0256 2.09328C40.2757 3.48925 43.121 5.39264 45.559 7.80254C47.9973 10.2125 49.9142 13.0423 51.3114 16.2895C52.7073 19.5379 53.4066 22.989 53.4066 26.6419C53.4066 30.2958 52.7073 33.7471 51.3114 36.9943C49.9142 40.2427 47.9973 43.0724 45.559 45.4823C43.121 47.8922 40.2757 49.7957 37.0256 51.1905C33.7756 52.5863 30.3213 53.2838 26.6653 53.2838C23.0081 53.2838 19.5539 52.5863 16.3038 51.1905C13.0526 49.7957 10.2203 47.8922 7.80826 45.4823C5.39625 43.0724 3.49108 40.2427 2.09512 36.9943C0.698032 33.7471 0 30.2958 0 26.6419Z" fill="#5D683F"/>
<path d="M61.1462 55.2618H85.067V57.0028H61.1462V55.2618ZM73.7667 20.0715C75.8789 20.0715 77.9201 20.4854 79.8921 21.3114C81.8633 22.1382 83.6058 23.2898 85.1198 24.767L83.9581 25.9805C82.6198 24.6443 81.062 23.6064 79.2849 22.8677C77.5068 22.1292 75.6676 21.7598 73.7667 21.7598C71.7947 21.7598 69.9383 22.1473 68.1958 22.9206C66.4532 23.6946 64.9301 24.7324 63.6282 26.0333C62.3252 27.335 61.2865 28.865 60.5126 30.6233C59.7378 32.3825 59.3509 34.229 59.3509 36.163C59.3509 38.1333 59.7378 39.988 60.5126 41.7291C61.2865 43.4701 62.3252 44.9919 63.6282 46.2928C64.9301 47.5943 66.4532 48.6231 68.1958 49.3791C69.9383 50.1359 71.7947 50.5134 73.7667 50.5134C75.6676 50.5134 77.5068 50.1532 79.2849 49.4319C81.062 48.7114 82.6198 47.6826 83.9581 46.3455L85.1198 47.5062C83.6058 48.9835 81.8633 50.1359 79.8921 50.9619C77.9201 51.7888 75.8789 52.2017 73.7667 52.2017C71.5836 52.2017 69.5159 51.7714 67.5621 50.9092C65.6083 50.0477 63.9004 48.8869 62.44 47.4271C60.9788 45.968 59.817 44.2706 58.9548 42.3358C58.0918 40.4018 57.6611 38.3442 57.6611 36.163C57.6611 34.018 58.0918 31.9687 58.9548 30.0166C59.817 28.0646 60.9879 26.3498 62.4664 24.8726C63.945 23.3953 65.6521 22.2264 67.5885 21.3642C69.5241 20.5027 71.5836 20.0715 73.7667 20.0715Z" fill="#5D683F"/>
<path d="M104.024 20.0715V21.8126H97.2121V57.0027H95.5223V21.8126H88.7104V20.0715H104.024Z" fill="#5D683F"/>
<path d="M109.621 55.2617C111.944 55.2617 114.127 54.8224 116.169 53.9428C118.21 53.064 119.988 51.8679 121.502 50.3551C123.015 48.8433 124.212 47.0668 125.093 45.0265C125.972 42.987 126.413 40.8239 126.413 38.5372C126.413 36.2157 125.972 34.0353 125.093 31.9951C124.212 29.9556 123.015 28.1791 121.502 26.6664C119.988 25.1546 118.219 23.9584 116.195 23.0788C114.17 22.2 111.997 21.7598 109.674 21.7598L109.621 55.2617ZM128.156 38.5372C128.156 41.0696 127.671 43.4619 126.703 45.7123C125.735 47.9637 124.415 49.9158 122.743 51.5686C121.07 53.2223 119.108 54.5412 116.855 55.5255C114.602 56.5106 112.19 57.0028 109.621 57.0028V69.5066H107.984V20.0715H109.674C112.208 20.0715 114.602 20.5555 116.855 21.5224C119.108 22.4902 121.07 23.8092 122.743 25.4794C124.415 27.1503 125.735 29.1024 126.703 31.3355C127.671 33.5696 128.156 35.9701 128.156 38.5372Z" fill="#5D683F"/>
<path d="M134.28 55.3673H162.161V57.0028H134.28V55.3673ZM133.804 36.163C133.804 38.1333 134.182 39.9972 134.94 41.7555C135.696 43.5147 136.735 45.0446 138.055 46.3455C139.375 47.6472 140.915 48.6759 142.676 49.4319C144.436 50.1886 146.301 50.5662 148.273 50.5662C150.244 50.5662 152.102 50.1886 153.844 49.4319C155.587 48.6759 157.109 47.6381 158.412 46.3191C159.714 45.0001 160.743 43.4701 161.501 41.7291C162.257 39.988 162.636 38.1333 162.636 36.163C162.636 34.1936 162.257 32.338 161.501 30.597C160.743 28.8559 159.714 27.3259 158.412 26.0069C157.109 24.6879 155.587 23.6509 153.844 22.8941C152.102 22.1382 150.244 21.7598 148.273 21.7598C146.301 21.7598 144.436 22.1382 142.676 22.8941C140.915 23.6509 139.375 24.6797 138.055 25.9805C136.735 27.2822 135.696 28.8121 134.94 30.5706C134.182 32.3297 133.804 34.1936 133.804 36.163ZM132.115 36.163C132.115 33.9471 132.537 31.8631 133.382 29.911C134.227 27.959 135.389 26.2534 136.867 24.7934C138.346 23.3343 140.062 22.1819 142.016 21.3378C143.97 20.4937 146.055 20.0715 148.273 20.0715C150.491 20.0715 152.577 20.4937 154.531 21.3378C156.484 22.1819 158.191 23.3343 159.653 24.7934C161.113 26.2534 162.267 27.959 163.111 29.911C163.956 31.8631 164.379 33.9471 164.379 36.163C164.379 38.3789 163.956 40.4628 163.111 42.4149C162.267 44.3671 161.113 46.0644 159.653 47.5062C158.191 48.9488 156.484 50.0914 154.531 50.9355C152.577 51.7797 150.491 52.2017 148.273 52.2017C146.055 52.2017 143.97 51.7888 142.016 50.9619C140.062 50.1359 138.346 48.9925 136.867 47.5325C135.389 46.0735 134.227 44.3671 133.382 42.4149C132.537 40.4628 132.115 38.3789 132.115 36.163Z" fill="#5D683F"/>
<path d="M73.7664 20.565C71.6637 20.565 69.6527 20.9855 67.7891 21.8148C65.9167 22.6486 64.2432 23.7948 62.8153 25.2215C61.3863 26.6491 60.2395 28.3294 59.4063 30.2158C58.5757 32.0945 58.1546 34.0954 58.1546 36.163C58.1546 38.2657 58.5755 40.2748 59.4056 42.1349C60.2392 44.0059 61.3775 45.6689 62.7886 47.0781C64.1987 48.4876 65.8716 49.6247 67.7611 50.4579C69.6415 51.2877 71.6619 51.7084 73.7664 51.7084C75.8029 51.7084 77.7996 51.3042 79.7007 50.507C81.4489 49.7744 83.0314 48.7629 84.4115 47.4966L83.9519 47.0373C82.6513 48.2516 81.1459 49.2097 79.4702 49.889C77.642 50.6307 75.7229 51.0069 73.7664 51.0069C71.7348 51.0069 69.7942 50.6114 67.9986 49.8316C66.2062 49.054 64.618 47.9807 63.2785 46.6415C61.9389 45.304 60.8563 43.7185 60.061 41.9294C59.2619 40.1338 58.8568 38.1936 58.8568 36.163C58.8568 34.1687 59.2617 32.2381 60.0602 30.4246C60.8551 28.6188 61.938 27.0239 63.2786 25.6845C64.6176 24.3467 66.2043 23.2651 67.9948 22.4697C69.7942 21.6713 71.736 21.2665 73.7664 21.2665C75.7236 21.2665 77.644 21.652 79.4741 22.4123C81.1445 23.1065 82.6459 24.0705 83.9439 25.2813L84.4197 24.7843C83.0389 23.5158 81.4535 22.5016 79.7006 21.7663C77.7976 20.9692 75.8009 20.565 73.7664 20.565ZM73.7664 52.6951C71.5236 52.6951 69.369 52.2461 67.3623 51.3604C65.3607 50.4779 63.587 49.2719 62.0904 47.7758C60.5934 46.2809 59.3865 44.5182 58.5034 42.5366C57.6167 40.5494 57.167 38.405 57.167 36.163C57.167 33.9573 57.6165 31.8223 58.5028 29.8173C59.3855 27.819 60.6014 26.038 62.1168 24.5238C63.6306 23.0113 65.4038 21.7967 67.3872 20.9135C69.3781 20.0275 71.5243 19.5781 73.7664 19.5781C75.9328 19.5781 78.0578 20.0083 80.0827 20.8564C82.1029 21.7038 83.9135 22.9007 85.4645 24.4141C85.6582 24.6031 85.6634 24.9128 85.4764 25.1082L84.3146 26.3216C84.2228 26.4175 84.0962 26.4724 83.9633 26.4739C83.8303 26.4759 83.7026 26.4234 83.6087 26.3295C82.3221 25.0448 80.8035 24.0334 79.0948 23.3233C77.3856 22.6133 75.5929 22.2532 73.7664 22.2532C71.875 22.2532 70.068 22.6294 68.3958 23.3714C66.7167 24.1174 65.23 25.1304 63.9769 26.3822C62.7233 27.6348 61.7097 29.1285 60.9643 30.822C60.2211 32.5094 59.8444 34.3064 59.8444 36.163C59.8444 38.0546 60.2209 39.8598 60.9635 41.5287C61.7094 43.2067 62.7232 44.692 63.9768 45.9437C65.2284 47.1951 66.7139 48.1986 68.3921 48.9266C70.0629 49.6523 71.871 50.0202 73.7664 50.0202C75.5949 50.0202 77.389 49.6684 79.0987 48.9748C80.8062 48.2826 82.3236 47.2805 83.6086 45.9967C83.8014 45.804 84.1141 45.804 84.3069 45.9967L85.4687 47.1573C85.562 47.2505 85.6141 47.3773 85.6132 47.5091C85.6125 47.641 85.5589 47.767 85.4645 47.8592C83.9119 49.3741 82.1013 50.5711 80.0828 51.4169C78.06 52.265 75.9349 52.6951 73.7664 52.6951ZM61.6397 56.5094H84.5729V55.7551H61.6397V56.5094ZM85.0667 57.4962H61.1459C60.8732 57.4962 60.6521 57.2754 60.6521 57.0029V55.2618C60.6521 54.9893 60.8732 54.7684 61.1459 54.7684H85.0667C85.3395 54.7684 85.5605 54.9893 85.5605 55.2618V57.0029C85.5605 57.2754 85.3395 57.4962 85.0667 57.4962Z" fill="#5D683F"/>
<path d="M96.0158 56.5094H96.7179V21.8126C96.7179 21.5401 96.939 21.3192 97.2117 21.3192H103.53V20.565H89.2039V21.3192H95.5219C95.7947 21.3192 96.0158 21.5401 96.0158 21.8126V56.5094ZM97.2117 57.4962H95.5219C95.2493 57.4962 95.0281 57.2752 95.0281 57.0028V22.306H88.71C88.4374 22.306 88.2163 22.0851 88.2163 21.8126V20.0716C88.2163 19.7991 88.4374 19.5781 88.71 19.5781H104.024C104.296 19.5781 104.517 19.7991 104.517 20.0716V21.8126C104.517 22.0851 104.296 22.306 104.024 22.306H97.7056V57.0028C97.7056 57.2752 97.4844 57.4962 97.2117 57.4962Z" fill="#5D683F"/>
<path d="M110.166 22.2602L110.115 54.7614C112.18 54.7027 114.148 54.2757 115.973 53.4898C117.947 52.6399 119.69 51.4679 121.153 50.0063C122.615 48.5456 123.788 46.8045 124.639 44.8313C125.488 42.8622 125.919 40.7445 125.919 38.5372C125.919 36.2956 125.488 34.1602 124.639 32.1903C123.788 30.218 122.615 28.4768 121.153 27.0152C119.689 25.554 117.955 24.3818 115.998 23.5313C114.188 22.7456 112.228 22.3187 110.166 22.2602ZM109.621 55.7552C109.489 55.7552 109.364 55.7031 109.271 55.6103C109.179 55.5177 109.127 55.392 109.127 55.2609L109.18 21.759C109.18 21.4869 109.401 21.2664 109.673 21.2664C112.052 21.2664 114.312 21.724 116.392 22.6263C118.463 23.5265 120.299 24.7684 121.851 26.3175C123.402 27.8679 124.645 29.7122 125.546 31.7997C126.449 33.8939 126.906 36.1607 126.906 38.5372C126.906 40.8796 126.449 43.1286 125.546 45.2218C124.645 47.3102 123.402 49.1547 121.851 50.704C120.299 52.2542 118.453 53.4964 116.364 54.3958C114.27 55.2978 112.001 55.7552 109.621 55.7552ZM108.477 69.0133H109.127V57.0028C109.127 56.7303 109.348 56.5095 109.621 56.5095C112.11 56.5095 114.478 56.0263 116.657 55.0736C118.844 54.118 120.774 52.8208 122.395 51.218C124.014 49.6176 125.311 47.6998 126.249 45.5175C127.186 43.339 127.661 40.9904 127.661 38.5372C127.661 36.0505 127.186 33.6934 126.25 31.5316C125.311 29.3662 124.013 27.4473 122.393 25.8282C120.774 24.2106 118.845 22.9144 116.66 21.9757C114.478 21.0397 112.128 20.5649 109.673 20.5649H108.477V69.0133ZM109.621 70H107.984C107.711 70 107.49 69.7792 107.49 69.5066V20.0716C107.49 19.7991 107.711 19.5782 107.984 19.5782H109.673C112.263 19.5782 114.744 20.0798 117.05 21.0692C119.35 22.0575 121.383 23.4239 123.092 25.1304C124.8 26.8379 126.167 28.8595 127.156 31.1394C128.147 33.4261 128.649 35.9149 128.649 38.5372C128.649 41.1251 128.147 43.6047 127.157 45.9071C126.167 48.2066 124.799 50.2293 123.09 51.9193C121.382 53.6079 119.351 54.9733 117.053 55.9776C114.893 56.9219 112.561 57.43 110.114 57.4902V69.5066C110.114 69.7792 109.893 70 109.621 70Z" fill="#5D683F"/>
<path d="M148.273 22.2532C146.379 22.2532 144.561 22.6214 142.871 23.3475C141.176 24.0758 139.673 25.0799 138.402 26.3318C137.133 27.5828 136.121 29.0745 135.394 30.7654C134.667 32.4533 134.298 34.2692 134.298 36.163C134.298 38.0576 134.667 39.8735 135.394 41.5604C136.121 43.2523 137.133 44.744 138.402 45.9942C139.673 47.247 141.176 48.251 142.871 48.9786C144.56 49.7047 146.377 50.0729 148.273 50.0729C150.169 50.0729 151.977 49.705 153.647 48.9794C155.323 48.2525 156.808 47.2409 158.06 45.9726C159.313 44.7033 160.318 43.2093 161.048 41.5324C161.774 39.8615 162.142 38.0548 162.142 36.163C162.142 34.2712 161.774 32.4646 161.048 30.7935C160.318 29.1166 159.313 27.6228 158.06 26.3533C156.809 25.0865 155.324 24.0749 153.647 23.3466C151.975 22.6211 150.167 22.2532 148.273 22.2532ZM148.273 51.0596C146.242 51.0596 144.293 50.6644 142.481 49.885C140.673 49.1088 139.067 48.0361 137.709 46.6966C136.349 45.3566 135.264 43.7596 134.486 41.9502C133.706 40.1397 133.311 38.1925 133.311 36.163C133.311 34.1344 133.706 32.1872 134.486 30.3756C135.264 28.5673 136.349 26.9704 137.709 25.6294C139.067 24.2908 140.673 23.2181 142.481 22.4409C144.295 21.6616 146.244 21.2665 148.273 21.2665C150.303 21.2665 152.243 21.6618 154.041 22.4416C155.834 23.2203 157.423 24.3033 158.763 25.6604C160.102 27.0167 161.176 28.6114 161.954 30.4003C162.734 32.1964 163.13 34.1352 163.13 36.163C163.13 38.1908 162.734 40.1297 161.954 41.9256C161.176 43.7146 160.102 45.3093 158.763 46.6655C157.421 48.0242 155.833 49.1072 154.041 49.8844C152.245 50.6641 150.305 51.0596 148.273 51.0596ZM148.273 20.565C146.134 20.565 144.094 20.9773 142.212 21.7906C140.325 22.606 138.643 23.7344 137.214 25.1445C135.788 26.5531 134.651 28.2228 133.835 30.1069C133.021 31.9877 132.609 34.0253 132.609 36.163C132.609 38.3009 133.021 40.3384 133.835 42.2192C134.652 44.1046 135.788 45.7742 137.214 47.1816C138.642 48.5911 140.322 49.7101 142.208 50.5075C144.091 51.3043 146.132 51.7084 148.273 51.7084C150.413 51.7084 152.452 51.2959 154.335 50.4828C156.223 49.6667 157.896 48.5472 159.306 47.1552C160.715 45.7641 161.843 44.1034 162.658 42.2192C163.472 40.3383 163.885 38.3008 163.885 36.163C163.885 34.0253 163.472 31.9877 162.658 30.1069C161.843 28.2228 160.714 26.5523 159.303 25.1423C157.892 23.7332 156.221 22.6054 154.335 21.7906C152.452 20.9773 150.413 20.565 148.273 20.565ZM148.273 52.6951C145.999 52.6951 143.829 52.2648 141.823 51.4162C139.821 50.5699 138.037 49.3813 136.52 47.8835C135.004 46.387 133.796 44.613 132.929 42.6108C132.061 40.6057 131.621 38.4363 131.621 36.163C131.621 33.8897 132.061 31.7204 132.929 29.7152C133.795 27.7146 135.003 25.9405 136.52 24.4426C138.037 22.9461 139.82 21.7491 141.82 20.885C143.827 20.0179 145.998 19.5781 148.273 19.5781C150.549 19.5781 152.72 20.0179 154.727 20.885C156.727 21.7493 158.502 22.9469 160.002 24.4445C161.501 25.9432 162.7 27.7164 163.565 29.7152C164.433 31.7204 164.873 33.8897 164.873 36.163C164.873 38.4363 164.433 40.6057 163.565 42.6108C162.699 44.6117 161.499 46.3767 160 47.8572C158.502 49.3354 156.728 50.5236 154.727 51.3884C152.72 52.2554 150.549 52.6951 148.273 52.6951ZM134.774 56.5094H161.667V55.8607H134.774V56.5094ZM162.161 57.4962H134.28C134.007 57.4962 133.786 57.2752 133.786 57.0027V55.3672C133.786 55.0948 134.007 54.8738 134.28 54.8738H162.161C162.434 54.8738 162.655 55.0948 162.655 55.3672V57.0027C162.655 57.2752 162.434 57.4962 162.161 57.4962Z" fill="#5D683F"/>
<path d="M198.698 56.2023H226.579V57.8378H198.698V56.2023ZM198.223 36.9982C198.223 38.9683 198.6 40.8322 199.358 42.5906C200.114 44.3498 201.153 45.8797 202.473 47.1806C203.793 48.4823 205.333 49.5111 207.094 50.2669C208.854 51.0237 210.719 51.4013 212.691 51.4013C214.662 51.4013 216.519 51.0237 218.262 50.2669C220.005 49.5111 221.527 48.4732 222.83 47.1542C224.132 45.8352 225.161 44.3053 225.919 42.5642C226.675 40.8232 227.054 38.9683 227.054 36.9982C227.054 35.0287 226.675 33.1732 225.919 31.432C225.161 29.691 224.132 28.161 222.83 26.842C221.527 25.523 220.005 24.486 218.262 23.7293C216.519 22.9733 214.662 22.595 212.691 22.595C210.719 22.595 208.854 22.9733 207.094 23.7293C205.333 24.486 203.793 25.5148 202.473 26.8156C201.153 28.1173 200.114 29.6473 199.358 31.4056C198.6 33.1649 198.223 35.0287 198.223 36.9982ZM196.533 36.9982C196.533 34.7822 196.955 32.6983 197.8 30.7462C198.645 28.7941 199.807 27.0885 201.285 25.6286C202.764 24.1694 204.48 23.017 206.434 22.1729C208.387 21.3288 210.473 20.9066 212.691 20.9066C214.909 20.9066 216.995 21.3288 218.949 22.1729C220.902 23.017 222.609 24.1694 224.071 25.6286C225.531 27.0885 226.684 28.7941 227.529 30.7462C228.374 32.6983 228.797 34.7822 228.797 36.9982C228.797 39.214 228.374 41.2979 227.529 43.2501C226.684 45.2021 225.531 46.8995 224.071 48.3412C222.609 49.7839 220.902 50.9265 218.949 51.7706C216.995 52.6147 214.909 53.0368 212.691 53.0368C210.473 53.0368 208.387 52.6238 206.434 51.797C204.48 50.971 202.764 49.8276 201.285 48.3676C199.807 46.9085 198.645 45.2021 197.8 43.2501C196.955 41.2979 196.533 39.214 196.533 36.9982Z" fill="#5D683F"/>
<path d="M250.658 57.8378H248.124L240.625 50.3989C238.583 51.3139 236.454 51.7705 234.236 51.7705V57.8378H232.493V20.9066H234.236V50.0296C236.171 50.0296 237.993 49.6602 239.701 48.9215C241.408 48.183 242.896 47.1806 244.163 45.9143C245.43 44.6481 246.434 43.1626 247.173 41.4562C247.912 39.7507 248.282 37.9304 248.282 35.9957V20.9066H249.972V35.9957C249.972 38.81 249.285 41.4125 247.912 43.804C246.539 46.1963 244.638 48.113 242.209 49.5547L250.658 57.8378Z" fill="#5D683F"/>
<path d="M212.691 22.9365C210.776 22.9365 208.938 23.3088 207.229 24.0431C205.517 24.779 203.997 25.7936 202.713 27.0588C201.431 28.3238 200.407 29.8316 199.672 31.5405C198.937 33.2474 198.564 35.0835 198.564 36.9982C198.564 38.9135 198.937 40.7497 199.672 42.4555C200.407 44.1654 201.431 45.6733 202.713 46.9374C203.997 48.2035 205.517 49.218 207.229 49.9532C208.937 50.6875 210.774 51.0598 212.691 51.0598C214.607 51.0598 216.436 50.6877 218.126 49.9537C219.819 49.2191 221.32 48.1966 222.587 46.9143C223.853 45.6315 224.869 44.122 225.605 42.4281C226.34 40.7377 226.712 38.9108 226.712 36.9982C226.712 35.0855 226.34 33.2584 225.605 31.5681C224.869 29.8741 223.853 28.3647 222.586 27.0819C221.321 25.801 219.821 24.7784 218.126 24.0425C216.434 23.3087 214.606 22.9365 212.691 22.9365ZM212.691 51.7429C210.681 51.7429 208.752 51.3518 206.959 50.5807C205.168 49.8119 203.578 48.7498 202.233 47.4237C200.887 46.0973 199.814 44.5166 199.044 42.7254C198.272 40.9339 197.881 39.0069 197.881 36.9982C197.881 34.9902 198.272 33.0631 199.044 31.2707C199.814 29.4805 200.887 27.8998 202.233 26.5726C203.578 25.2474 205.168 24.1851 206.959 23.4155C208.754 22.6443 210.683 22.2534 212.691 22.2534C214.7 22.2534 216.62 22.6445 218.398 23.416C220.173 24.1869 221.746 25.2588 223.073 26.6021C224.399 27.9452 225.462 29.5243 226.232 31.2959C227.005 33.0728 227.396 34.9913 227.396 36.9982C227.396 39.005 227.005 40.9234 226.233 42.7002C225.462 44.4718 224.399 46.051 223.073 47.3941C221.745 48.7389 220.172 49.8108 218.398 50.5803C216.622 51.3516 214.702 51.7429 212.691 51.7429ZM212.691 21.2482C210.531 21.2482 208.471 21.6648 206.569 22.4864C204.665 23.3093 202.968 24.4482 201.525 25.8716C200.085 27.294 198.937 28.9796 198.114 30.8818C197.292 32.7816 196.875 34.8395 196.875 36.9982C196.875 39.1568 197.292 41.2146 198.114 43.1144C198.938 45.0179 200.086 46.7037 201.525 48.1246C202.967 49.5477 204.663 50.6776 206.567 51.4825C208.469 52.2873 210.529 52.6953 212.691 52.6953C214.852 52.6953 216.911 52.2787 218.813 51.4571C220.719 50.6336 222.407 49.5036 223.83 48.0983C225.253 46.6934 226.392 45.0166 227.216 43.1144C228.038 41.2146 228.455 39.1568 228.455 36.9982C228.455 34.8395 228.038 32.7816 227.216 30.8818C226.393 28.98 225.253 27.2938 223.829 25.8701C222.404 24.4473 220.716 23.3088 218.813 22.4864C216.911 21.6648 214.852 21.2482 212.691 21.2482ZM212.691 53.3784C210.437 53.3784 208.287 52.9521 206.3 52.1115C204.316 51.2727 202.548 50.0948 201.045 48.6106C199.542 47.1278 198.345 45.3699 197.486 43.3856C196.627 41.3996 196.191 39.2505 196.191 36.9982C196.191 34.7457 196.627 32.5966 197.486 30.6106C198.345 28.6278 199.542 26.8699 201.045 25.3857C202.548 23.9024 204.315 22.716 206.298 21.8594C208.286 21.0005 210.437 20.5651 212.691 20.5651C214.945 20.5651 217.096 21.0005 219.084 21.8594C221.067 22.7162 222.826 23.903 224.312 25.387C225.798 26.872 226.986 28.6295 227.843 30.6106C228.703 32.5966 229.139 34.7457 229.139 36.9982C229.139 39.2505 228.703 41.3996 227.843 43.3856C226.985 45.3684 225.797 47.1176 224.311 48.5842C222.827 50.0493 221.069 51.2268 219.084 52.0842C217.097 52.9429 214.946 53.3784 212.691 53.3784ZM199.04 57.4964H226.237V56.5439H199.04V57.4964ZM226.579 58.1794H198.698C198.509 58.1794 198.356 58.0266 198.356 57.8378V56.2023C198.356 56.0137 198.509 55.8608 198.698 55.8608H226.579C226.768 55.8608 226.921 56.0137 226.921 56.2023V57.8378C226.921 58.0266 226.768 58.1794 226.579 58.1794Z" fill="#5D683F"/>
<path d="M248.264 57.4963H249.822L241.97 49.7985C241.894 49.7243 241.857 49.6191 241.87 49.5139C241.883 49.4086 241.944 49.3152 242.035 49.2611C244.401 47.8563 246.279 45.9631 247.616 43.6341C248.952 41.3061 249.63 38.7362 249.63 35.9956V21.2482H248.624V35.9956C248.624 37.9682 248.241 39.8511 247.487 41.5919C246.734 43.329 245.697 44.8646 244.405 46.1559C243.113 47.4466 241.576 48.4826 239.837 49.2351C238.094 49.9889 236.209 50.3711 234.236 50.3711C234.047 50.3711 233.894 50.2182 233.894 50.0295V21.2482H232.835V57.4963H233.894V51.7706C233.894 51.5819 234.047 51.429 234.236 51.429C236.396 51.429 238.499 50.9775 240.485 50.0871C240.614 50.0294 240.766 50.0568 240.866 50.1564L248.264 57.4963ZM250.658 58.1794H248.124C248.033 58.1794 247.947 58.1438 247.883 58.0803L240.55 50.8052C238.643 51.6271 236.637 52.065 234.578 52.1085V57.8378C234.578 58.0265 234.425 58.1794 234.236 58.1794H232.493C232.305 58.1794 232.151 58.0265 232.151 57.8378V20.9066C232.151 20.7179 232.305 20.5651 232.493 20.5651H234.236C234.425 20.5651 234.578 20.7179 234.578 20.9066V49.6839C236.333 49.6425 238.009 49.2811 239.565 48.6081C241.225 47.89 242.691 46.9024 243.921 45.6728C245.153 44.4427 246.141 42.9783 246.859 41.3205C247.577 39.6659 247.94 37.8743 247.94 35.9956V20.9066C247.94 20.7179 248.093 20.5651 248.282 20.5651H249.972C250.161 20.5651 250.314 20.7179 250.314 20.9066V35.9956C250.314 38.857 249.606 41.5413 248.209 43.9738C246.885 46.281 245.054 48.1778 242.762 49.6177L250.898 57.5941C250.997 57.6912 251.027 57.8386 250.975 57.9671C250.922 58.0955 250.797 58.1794 250.658 58.1794Z" fill="#5D683F"/>
<path d="M174.959 54.5432C181.329 54.5341 186.07 51.5079 188.303 47.2885C189.604 44.8306 189.833 40.959 188.303 38.4511C185.298 33.5257 174.062 33.8568 174.959 34.3622V54.5437V54.5432ZM174.959 22.7552V31.5926C174.523 31.6876 177.69 31.021 179.319 28.5589C180.953 26.0892 177.315 22.7335 174.959 22.7552ZM172.317 20.1172C176.347 20.0124 188.414 24.798 179.715 31.4607C180.393 31.5326 182.041 31.6125 184.207 32.384C187.114 33.4192 189.111 34.9479 190.681 37.5282C192.903 41.1791 192.251 45.9846 190.153 49.1356C186.637 54.4161 181.222 56.9353 172.316 56.9178C172.329 57.2526 172.316 50.6665 172.316 46.7613V28.6908C172.317 26.6221 172.36 22.3116 172.317 20.1172Z" fill="#5D683F"/>
<path d="M175.034 22.8315V31.4869C175.716 31.2745 177.978 30.448 179.255 28.517C179.938 27.4844 179.616 26.4102 179.224 25.6911C178.388 24.1541 176.487 22.8624 175.034 22.8315ZM174.919 31.6753C174.889 31.6753 174.856 31.6651 174.844 31.62C174.837 31.5933 174.84 31.5597 174.882 31.5362V22.7552C174.882 22.7135 174.916 22.6797 174.958 22.6793C176.468 22.6665 178.484 24.0114 179.358 25.6186C179.769 26.3743 180.107 27.5051 179.382 28.6007C178.022 30.6558 175.578 31.4842 175 31.656C174.993 31.661 174.984 31.6648 174.975 31.6668L174.96 31.6699C174.951 31.6719 174.936 31.6753 174.919 31.6753ZM175.011 34.3075C175.026 34.3216 175.034 34.3412 175.034 34.3621V54.467C180.929 54.4358 185.859 51.7427 188.235 47.253C189.44 44.9773 189.85 41.1329 188.237 38.4907C187.484 37.255 186.141 36.2498 184.246 35.5029C182.389 34.7708 180.394 34.4455 179.048 34.3014C176.802 34.061 175.278 34.1896 175.011 34.3075ZM174.958 54.6195C174.916 54.6195 174.882 54.5856 174.882 54.5437V34.402C174.834 34.3616 174.828 34.3192 174.833 34.2882C174.846 34.2055 174.942 34.1541 175.164 34.1108C175.935 33.9595 178.556 33.9229 181.399 34.5145C183.798 35.0136 186.954 36.0949 188.367 38.4116C189.09 39.5957 189.471 41.1862 189.44 42.8899C189.411 44.4998 189.031 46.0746 188.369 47.324C185.958 51.8815 180.948 54.6083 174.966 54.6191C174.964 54.6193 174.961 54.6195 174.958 54.6195ZM172.393 56.842H172.409C181.067 56.842 186.522 54.4503 190.089 49.0935C191.987 46.2439 192.961 41.4216 190.616 37.5676C189.08 35.0437 187.156 33.5148 184.181 32.4555C182.268 31.7741 180.775 31.636 179.973 31.5619C179.872 31.5526 179.783 31.5443 179.707 31.5362C179.676 31.5329 179.65 31.5111 179.642 31.4812C179.633 31.4514 179.644 31.4194 179.669 31.4005C182.22 29.4466 183.179 27.5126 182.521 25.6525C181.992 24.1594 180.381 22.7292 177.983 21.6254C176.073 20.7465 173.842 20.1744 172.394 20.1917C172.422 21.7391 172.41 24.2916 172.4 26.349C172.396 27.2351 172.392 28.072 172.392 28.6907V46.7613C172.392 48.1266 172.394 49.8194 172.395 51.4297C172.397 52.8709 172.398 54.246 172.398 55.2609C172.398 55.7683 172.398 56.1857 172.397 56.4762C172.396 56.6479 172.396 56.7637 172.393 56.842ZM172.318 57.0061C172.307 57.0061 172.243 57.0025 172.24 56.9208C172.24 56.9136 172.241 56.9065 172.242 56.8996C172.248 56.6232 172.246 54.0976 172.243 51.4298C172.242 49.8195 172.24 48.1266 172.24 46.7613V28.6907C172.24 28.0716 172.244 27.2346 172.248 26.3483C172.258 24.2576 172.271 21.6556 172.24 20.1187C172.239 20.077 172.273 20.0424 172.314 20.0413C173.781 20.0032 176.084 20.5844 178.046 21.4876C180.482 22.6086 182.122 24.0697 182.664 25.6019C183.334 27.4934 182.408 29.4447 179.912 31.4038C179.936 31.406 179.961 31.4084 179.987 31.4107C180.796 31.4855 182.302 31.6247 184.232 32.3125C187.202 33.3703 189.211 34.9666 190.746 37.4887C193.125 41.3994 192.139 46.2892 190.216 49.1776C186.618 54.5812 181.124 56.9939 172.409 56.9939H172.366C172.355 57.0053 172.34 57.0056 172.319 57.0061H172.318Z" fill="#5D683F"/>
<path d="M5.06976 54.4252H50.4235C51.0319 54.4252 51.525 54.9179 51.525 55.5258V56.9679C51.525 57.5758 51.0319 58.0685 50.4235 58.0685H5.06976C4.46138 58.0685 3.96826 57.5758 3.96826 56.9679V55.5258C3.96826 54.9179 4.46138 54.4252 5.06976 54.4252Z" fill="#7B4934"/>
</g>
</g>
<defs>
<clipPath id="clip0_20_119">
<rect width="251" height="70" fill="white"/>
</clipPath>
</defs>
</svg>
